<svg width="20" height="23" viewBox="0 0 20 23" fill="none" xmlns="http://www.w3.org/2000/svg">
<path d="M10.9206 5.56136C10.6161 5.65468 10.1691 5.73327 9.55022 5.7873C9.60425 3.0023 11.0189 1.04249 13.8726 0.379395C14.3294 2.42271 12.5906 5.00141 10.9206 5.56136ZM16.8786 9.13224C17.193 8.67053 17.694 8.15479 18.3817 7.5752C17.2863 6.21954 16.0191 5.39927 14.2017 5.39927C12.4629 5.39927 10.9992 6.29321 9.92843 6.29321C9.01975 6.29321 7.3792 5.50241 5.77795 5.50241C2.35933 5.50241 0.546875 8.84736 0.546875 12.3298C0.546875 16.2003 3.47923 22.3794 6.45087 22.3794C7.61988 22.3794 8.67101 21.4953 10.0611 21.4953C11.5002 21.4953 12.6545 22.3401 14.0052 22.3401C16.2647 22.3401 18.3571 18.5334 19.0153 16.4607C16.7166 15.7583 14.8697 12.0302 16.8786 9.13224Z" fill="#17191D"/>
</svg>
