<svg width="12" height="13" viewBox="0 0 12 13" fill="none" xmlns="http://www.w3.org/2000/svg">
<path d="M6.38984 2.23572H5.58984V6.68849L8.48017 8.06219L8.82359 7.33964L6.38984 6.18294V2.23572Z" fill="#636773"/>
<path d="M6 0.248413C2.6863 0.248413 0 2.93471 0 6.24841C0 9.56211 2.6863 12.2484 6 12.2484C9.3137 12.2484 12 9.56211 12 6.24841C12 2.93471 9.3137 0.248413 6 0.248413ZM6 11.4484C3.12812 11.4484 0.8 9.12029 0.8 6.24841C0.8 3.37654 3.12812 1.04841 6 1.04841C8.87187 1.04841 11.2 3.37654 11.2 6.24841C11.2 9.12029 8.87187 11.4484 6 11.4484Z" fill="#636773"/>
</svg>
