<svg width="33" height="32" viewBox="0 0 33 32" fill="none" xmlns="http://www.w3.org/2000/svg">
<path fill-rule="evenodd" clip-rule="evenodd" d="M11.1653 5.33337H28.4986C29.9714 5.33337 31.1653 6.52728 31.1653 8.00004V24C31.1653 25.4728 29.9714 26.6667 28.4986 26.6667H11.1653C10.4917 26.6667 10.1878 26.4181 9.5699 25.757C9.50813 25.6909 9.4452 25.6214 9.3812 25.5489C9.13606 25.271 8.91758 24.9993 8.80767 24.8536L1.42969 16L2.141 15.1465L8.74099 7.23352C8.87977 7.03601 9.09014 6.75631 9.33466 6.46908C9.43229 6.3544 9.52866 6.24701 9.62398 6.14777C10.1381 5.61243 10.5196 5.33337 11.1653 5.33337ZM11.3652 8.19767C11.1841 8.41044 11.0184 8.63074 10.8563 8.85362L4.90083 16.0001L10.8911 23.1901C11.0012 23.3341 11.1847 23.5624 11.3808 23.7845C11.4286 23.8387 11.4745 23.8895 11.5181 23.9361C11.5392 23.9587 11.5595 23.98 11.5789 24H28.4986V8.00004H11.5424C11.4879 8.05698 11.4283 8.12358 11.3652 8.19767ZM22.2225 11.0572L19.1653 14.1144L16.1081 11.0572L14.2225 12.9428L17.2797 16L14.2225 19.0572L16.1081 20.9429L19.1653 17.8857L22.2225 20.9429L24.1081 19.0572L21.0509 16L24.1081 12.9428L22.2225 11.0572Z" fill="#17191D"/>
</svg>
