<svg width="18" height="18" viewBox="0 0 18 18" fill="none" xmlns="http://www.w3.org/2000/svg">
<path d="M0.267482 16.978L0.27065 16.9811C0.35466 17.0658 0.45457 17.133 0.564635 17.1788C0.674701 17.2247 0.79275 17.2484 0.911996 17.2485C1.01234 17.2484 1.11198 17.2319 1.20696 17.1995L6.37815 15.4453L16.3013 5.52217C16.9079 4.91549 17.2487 4.09267 17.2487 3.23473C17.2486 2.37679 16.9078 1.554 16.3011 0.947371C15.6944 0.340742 14.8716 -3.75574e-05 14.0137 3.1046e-09C13.1557 3.75637e-05 12.3329 0.340889 11.7263 0.947572L1.80315 10.8707L0.0490994 16.0418C-0.00615326 16.2026 -0.0149726 16.3757 0.0236526 16.5413C0.0622778 16.7069 0.146784 16.8582 0.267482 16.978ZM12.5504 1.77154C12.939 1.38588 13.4646 1.16993 14.0121 1.17098C14.5596 1.17203 15.0844 1.39 15.4716 1.77715C15.8587 2.1643 16.0767 2.68909 16.0777 3.2366C16.0787 3.78412 15.8628 4.30973 15.4771 4.69835L14.1722 6.00325L11.2454 3.07645L12.5504 1.77154ZM2.8195 11.5024L10.4214 3.90041L13.3482 6.82722L5.74627 14.4291L1.31693 15.9317L2.8195 11.5024Z" fill="#636773"/>
</svg>
