<svg width="18" height="18" viewBox="0 0 18 18" fill="none" xmlns="http://www.w3.org/2000/svg">
<path d="M2.91326 4.7349V0H1.74798V4.7349C1.24768 4.86412 0.804503 5.15592 0.488098 5.56444C0.171694 5.97295 0 6.47502 0 6.99174C0 7.50845 0.171694 8.01052 0.488098 8.41903C0.804503 8.82755 1.24768 9.11935 1.74798 9.24857V17.4793H2.91326V9.24857C3.41356 9.11935 3.85674 8.82755 4.17314 8.41903C4.48955 8.01052 4.66124 7.50845 4.66124 6.99174C4.66124 6.47502 4.48955 5.97295 4.17314 5.56444C3.85674 5.15592 3.41356 4.86412 2.91326 4.7349ZM2.33062 8.15703C2.10015 8.15703 1.87485 8.08868 1.68322 7.96064C1.49159 7.83259 1.34223 7.6506 1.25403 7.43767C1.16584 7.22474 1.14276 6.99044 1.18772 6.7644C1.23268 6.53835 1.34367 6.33072 1.50664 6.16775C1.6696 6.00478 1.87724 5.8938 2.10328 5.84884C2.32933 5.80387 2.56363 5.82695 2.77656 5.91515C2.98949 6.00335 3.17148 6.1527 3.29952 6.34434C3.42757 6.53597 3.49591 6.76126 3.49591 6.99174C3.49556 7.30068 3.37268 7.59688 3.15422 7.81534C2.93576 8.0338 2.63957 8.15668 2.33062 8.15703Z" fill="#636363"/>
<path d="M9.32342 9.9787V0H8.15813V9.9787C7.65784 10.1079 7.21466 10.3997 6.89825 10.8082C6.58185 11.2168 6.41016 11.7188 6.41016 12.2355C6.41016 12.7523 6.58185 13.2543 6.89825 13.6628C7.21466 14.0714 7.65784 14.3632 8.15813 14.4924V17.4793H9.32342V14.4924C9.82372 14.3632 10.2669 14.0714 10.5833 13.6628C10.8997 13.2543 11.0714 12.7523 11.0714 12.2355C11.0714 11.7188 10.8997 11.2168 10.5833 10.8082C10.2669 10.3997 9.82372 10.1079 9.32342 9.9787ZM8.74078 13.4008C8.5103 13.4008 8.28501 13.3325 8.09338 13.2044C7.90175 13.0764 7.75239 12.8944 7.66419 12.6815C7.57599 12.4685 7.55291 12.2342 7.59788 12.0082C7.64284 11.7822 7.75382 11.5745 7.91679 11.4116C8.07976 11.2486 8.2874 11.1376 8.51344 11.0926C8.73948 11.0477 8.97378 11.0708 9.18671 11.159C9.39964 11.2471 9.58163 11.3965 9.70968 11.5881C9.83772 11.7798 9.90606 12.0051 9.90606 12.2355C9.90572 12.5445 9.78284 12.8407 9.56438 13.0591C9.34592 13.2776 9.04972 13.4005 8.74078 13.4008Z" fill="#636363"/>
<path d="M15.7336 2.40432V0H14.5683V2.40432C14.068 2.53354 13.6248 2.82534 13.3084 3.23386C12.992 3.64237 12.8203 4.14444 12.8203 4.66116C12.8203 5.17787 12.992 5.67994 13.3084 6.08846C13.6248 6.49697 14.068 6.78877 14.5683 6.91799V17.4793H15.7336V6.91799C16.2339 6.78877 16.6771 6.49697 16.9935 6.08846C17.3099 5.67994 17.4816 5.17787 17.4816 4.66116C17.4816 4.14444 17.3099 3.64237 16.9935 3.23386C16.6771 2.82534 16.2339 2.53354 15.7336 2.40432ZM15.1509 5.82645C14.9205 5.82645 14.6952 5.7581 14.5035 5.63006C14.3119 5.50202 14.1625 5.32002 14.0743 5.10709C13.9861 4.89417 13.9631 4.65986 14.008 4.43382C14.053 4.20778 14.164 4.00014 14.3269 3.83717C14.4899 3.6742 14.6976 3.56322 14.9236 3.51826C15.1496 3.4733 15.3839 3.49637 15.5969 3.58457C15.8098 3.67277 15.9918 3.82213 16.1198 4.01376C16.2479 4.20539 16.3162 4.43068 16.3162 4.66116C16.3159 4.9701 16.193 5.2663 15.9745 5.48476C15.7561 5.70322 15.4599 5.8261 15.1509 5.82645Z" fill="#636363"/>
</svg>
