<svg width="22" height="22" viewBox="0 0 22 22" fill="none" xmlns="http://www.w3.org/2000/svg">
<path d="M4.87566 13.2953L4.10987 16.1541L1.31093 16.2133C0.474461 14.6619 0 12.8868 0 11.0004C0 9.17638 0.443609 7.45626 1.22994 5.94165H1.23054L3.72238 6.39849L4.81396 8.87538C4.58549 9.54144 4.46097 10.2564 4.46097 11.0004C4.46106 11.8079 4.60732 12.5816 4.87566 13.2953Z" fill="#FBBB00"/>
<path d="M21.8082 8.9447C21.9345 9.61012 22.0004 10.2973 22.0004 10.9996C22.0004 11.7872 21.9176 12.5554 21.7598 13.2964C21.2243 15.8179 19.8252 18.0197 17.8869 19.5778L17.8863 19.5772L14.7477 19.4171L14.3035 16.6441C15.5896 15.8898 16.5947 14.7094 17.1242 13.2964H11.2422V8.9447H17.21H21.8082Z" fill="#518EF8"/>
<path d="M17.8874 19.5774L17.888 19.578C16.003 21.0932 13.6083 21.9998 11.0016 21.9998C6.8125 21.9998 3.17043 19.6583 1.3125 16.2127L4.87723 13.2947C5.80617 15.7739 8.19777 17.5387 11.0016 17.5387C12.2067 17.5387 13.3358 17.213 14.3046 16.6442L17.8874 19.5774Z" fill="#28B446"/>
<path d="M18.0218 2.53241L14.4583 5.44981C13.4556 4.82307 12.2703 4.46101 11.0005 4.46101C8.13327 4.46101 5.69694 6.30682 4.81453 8.87493L1.23107 5.9412H1.23047C3.06119 2.41153 6.7492 0 11.0005 0C13.6695 0 16.1167 0.950726 18.0218 2.53241Z" fill="#F14336"/>
</svg>
