<svg width="18" height="18" viewBox="0 0 18 18" fill="none" xmlns="http://www.w3.org/2000/svg">
<path d="M12.5 0H5.5C4.04131 0 2.64236 0.579463 1.61091 1.61091C0.579463 2.64236 0 4.04131 0 5.5V12.5C0 13.9587 0.579463 15.3576 1.61091 16.3891C2.64236 17.4205 4.04131 18 5.5 18H12.5C13.9587 18 15.3576 17.4205 16.3891 16.3891C17.4205 15.3576 18 13.9587 18 12.5V5.5C18 4.04131 17.4205 2.64236 16.3891 1.61091C15.3576 0.579463 13.9587 0 12.5 0ZM16.5 12.5C16.4988 13.5605 16.077 14.5772 15.3271 15.3271C14.5772 16.077 13.5605 16.4988 12.5 16.5H5.5C4.4395 16.4988 3.42279 16.077 2.6729 15.3271C1.92301 14.5772 1.5012 13.5605 1.5 12.5V5.5C1.50119 4.4395 1.923 3.42278 2.67289 2.67289C3.42278 1.923 4.4395 1.50119 5.5 1.5H12.5C13.5605 1.50119 14.5772 1.923 15.3271 2.67289C16.077 3.42278 16.4988 4.4395 16.5 5.5V12.5Z" fill="white"/>
<path d="M9 4.5C8.10999 4.5 7.23996 4.76392 6.49994 5.25839C5.75991 5.75285 5.18314 6.45566 4.84254 7.27792C4.50195 8.10019 4.41283 9.00499 4.58647 9.87791C4.7601 10.7508 5.18869 11.5526 5.81802 12.182C6.44736 12.8113 7.24918 13.2399 8.1221 13.4135C8.99501 13.5872 9.89981 13.4981 10.7221 13.1575C11.5443 12.8169 12.2471 12.2401 12.7416 11.5001C13.2361 10.76 13.5 9.89002 13.5 9C13.5 7.80653 13.0259 6.66193 12.182 5.81802C11.3381 4.97411 10.1935 4.5 9 4.5ZM9 12C8.40666 12 7.82664 11.8241 7.33329 11.4944C6.83994 11.1648 6.45543 10.6962 6.22836 10.1481C6.0013 9.59987 5.94189 8.99667 6.05765 8.41473C6.1734 7.83279 6.45912 7.29824 6.87868 6.87868C7.29824 6.45912 7.83279 6.1734 8.41473 6.05764C8.99667 5.94189 9.59987 6.0013 10.1481 6.22836C10.6962 6.45542 11.1648 6.83994 11.4944 7.33329C11.8241 7.82664 12 8.40666 12 9C11.9991 9.79537 11.6827 10.5579 11.1203 11.1203C10.5579 11.6827 9.79538 11.9991 9 12Z" fill="white"/>
<path d="M13.6992 5.2998C14.2515 5.2998 14.6992 4.85209 14.6992 4.2998C14.6992 3.74752 14.2515 3.2998 13.6992 3.2998C13.1469 3.2998 12.6992 3.74752 12.6992 4.2998C12.6992 4.85209 13.1469 5.2998 13.6992 5.2998Z" fill="white"/>
</svg>
