<svg width="82" height="83" viewBox="0 0 82 83" fill="none" xmlns="http://www.w3.org/2000/svg">
<path d="M62.3983 26.0517C62.0885 25.5957 61.4689 25.476 61.0129 25.7858C60.5569 26.0944 60.4372 26.7139 60.747 27.1699C67.4572 37.0751 65.6381 50.6987 56.0817 58.4335C46.1844 66.4443 31.439 65.1476 23.2 54.9688C15.18 45.0628 16.4959 30.3178 26.6648 22.0871C36.3353 14.2601 50.1527 15.5042 58.354 24.1877C58.7316 24.5878 59.3631 24.6065 59.7632 24.2288C60.1634 23.8499 60.182 23.2184 59.8044 22.8183C50.894 13.3856 35.8992 12.048 25.4097 20.5369C14.3567 29.4819 12.9599 45.4859 21.6498 56.2239C25.3232 60.7642 30.3541 63.834 35.9328 65.0493V77.2423C35.9328 81.7146 41.0311 84.2252 44.5733 81.6418C45.0188 81.3174 45.1171 80.6925 44.7927 80.2484C44.4683 79.803 43.8448 79.7046 43.3994 80.029C41.1548 81.6632 37.927 80.0748 37.927 77.2423V65.4029C40.2115 65.7125 42.5333 65.7151 44.8192 65.399C44.8178 78.0221 44.8227 77.2524 44.8153 77.3953C44.7904 77.9665 45.2476 78.4376 45.8124 78.4376C46.3429 78.4376 46.7843 78.0188 46.8083 77.4844C46.8109 77.4047 46.8136 77.3235 46.8136 77.2425V65.0428C64.6175 61.1217 72.2659 40.6225 62.3983 26.0517Z" fill="#F87E35"/>
<path d="M39.9854 19.0654C36.35 19.3033 32.8729 20.489 29.9315 22.3666C29.4676 22.6631 29.3305 23.2786 29.6271 23.7439C29.9236 24.2079 30.5405 24.3436 31.0044 24.0483C38.4546 19.2893 48.2158 20.172 54.6885 26.363C64.6578 35.9061 61.6996 52.9578 48.3986 58.1744C38.5895 62.0178 27.4655 57.3398 23.4595 47.2855C20.962 40.9084 22.0623 33.8844 26.0441 28.6284C26.6464 27.8319 27.3151 27.0794 28.0317 26.3881C28.4279 26.0065 28.4399 25.3751 28.0583 24.9789C27.6767 24.5827 27.0453 24.5694 26.6491 24.9523C20.449 30.9131 18.302 40.2606 21.8429 48.5992C28.5296 64.2786 49.7938 65.8593 59.0109 52.0919C68.8141 37.4453 57.5115 17.9004 39.9854 19.0654Z" fill="#F87E35"/>
<path d="M57.7707 39.5825C60.6182 36.8465 58.6605 31.9724 54.6955 31.9724C52.4366 31.9724 50.5687 33.6728 50.3028 35.86H45.8329C43.0347 33.07 37.07 31.4752 33.1281 31.4752C27.447 31.4752 22.8242 35.1128 22.8242 39.5827C22.8242 44.0539 27.4469 47.6901 33.1281 47.6901C37.0138 47.6901 42.3184 45.8313 45.1801 43.3054H50.3028C50.5687 45.4937 52.4367 47.1942 54.6955 47.1942C58.6647 47.1941 60.6162 42.321 57.7707 39.5825ZM33.1279 45.6957C28.5464 45.6957 24.8184 42.9543 24.8184 39.5827C24.8184 36.2123 28.5464 33.4696 33.1279 33.4696C37.9835 33.4696 45.426 36.1438 45.426 39.2065C45.426 42.3307 37.9088 45.6957 33.1279 45.6957ZM55.5916 40.5093C56.5237 40.8801 57.1259 41.767 57.1259 42.7682C57.1259 44.1083 56.0356 45.1999 54.6955 45.1999C53.2555 45.1999 52.09 43.9342 52.2891 42.4411C52.3682 41.8357 51.8974 41.311 51.3 41.311H46.8435C47.4568 40.2019 47.6041 39.0142 47.1745 37.8542H51.3C51.5885 37.8542 51.861 37.7305 52.0511 37.5139C52.4098 37.1021 52.2652 36.7025 52.2652 36.3971C52.2652 35.057 53.3555 33.9668 54.6956 33.9668C56.0357 33.9668 57.126 35.057 57.126 36.3971C57.126 37.3996 56.5237 38.2864 55.5918 38.6561C55.2115 38.8077 54.9629 39.1746 54.9629 39.5828C54.9627 39.9921 55.2113 40.359 55.5916 40.5093Z" fill="#F87E35"/>
<path d="M41.3724 78.1327C42.07 78.1327 42.6355 77.5672 42.6355 76.8696C42.6355 76.1721 42.07 75.6066 41.3724 75.6066C40.6749 75.6066 40.1094 76.1721 40.1094 76.8696C40.1094 77.5672 40.6749 78.1327 41.3724 78.1327Z" fill="#F87E35"/>
<path d="M28.9805 70.9545C21.8094 68.2077 15.8427 63.0104 12.138 56.284C8.43344 49.5576 7.23034 41.7366 8.74204 34.2078C10.2538 26.6789 14.3826 19.9286 20.3966 15.1535C26.4105 10.3785 33.9211 7.88722 41.5966 8.12146C49.2722 8.35571 56.6169 11.3003 62.3285 16.4332C68.0401 21.5661 71.7496 28.5557 72.7994 36.1627C73.8491 43.7697 72.1714 51.5027 68.0635 57.9907C63.9556 64.4787 57.683 69.3026 50.3578 71.6069" stroke="#E2E2E2" stroke-width="2" stroke-linecap="round" stroke-linejoin="round"/>
</svg>
