<svg width="26" height="26" viewBox="0 0 26 26" fill="none" xmlns="http://www.w3.org/2000/svg">
<path fill-rule="evenodd" clip-rule="evenodd" d="M10.6992 21.3985C4.79021 21.3985 0 16.6083 0 10.6992C0 4.79021 4.79021 0 10.6992 0C16.6083 0 21.3985 4.79021 21.3985 10.6992C21.3985 12.8549 20.761 14.8617 19.6642 16.5413C19.3885 16.9634 19.4194 17.527 19.7759 17.8835L25.6501 23.7578C26.0406 24.1483 26.0406 24.7814 25.6501 25.172L25.1729 25.6491C24.7824 26.0397 24.1493 26.0397 23.7587 25.6491L17.8847 19.7751C17.5282 19.4186 16.9645 19.3878 16.5424 19.6635C14.8625 20.7607 12.8554 21.3985 10.6992 21.3985ZM18.7246 10.6995C18.7246 15.1312 15.132 18.7239 10.7002 18.7239C6.26844 18.7239 2.67578 15.1312 2.67578 10.6995C2.67578 6.26771 6.26844 2.67505 10.7002 2.67505C15.132 2.67505 18.7246 6.26771 18.7246 10.6995Z" fill="#17191D"/>
</svg>
