<svg width="27" height="27" viewBox="0 0 27 27" fill="none" xmlns="http://www.w3.org/2000/svg">
<path fill-rule="evenodd" clip-rule="evenodd" d="M10.6992 21.3985C4.79021 21.3985 0 16.6083 0 10.6992C0 4.79021 4.79021 0 10.6992 0C16.6083 0 21.3985 4.79021 21.3985 10.6992C21.3985 13.1715 20.56 15.4479 19.1519 17.2595L26.3572 24.4649L24.4658 26.3562L17.2606 19.151C15.4488 20.5596 13.172 21.3985 10.6992 21.3985ZM18.7246 10.6995C18.7246 15.1312 15.132 18.7239 10.7002 18.7239C6.26844 18.7239 2.67578 15.1312 2.67578 10.6995C2.67578 6.26771 6.26844 2.67505 10.7002 2.67505C15.132 2.67505 18.7246 6.26771 18.7246 10.6995Z" fill="#F87E35"/>
</svg>
