<svg width="17" height="19" viewBox="0 0 17 19" fill="none" xmlns="http://www.w3.org/2000/svg">
<path d="M13.7094 12.5265C13.2855 12.5266 12.8672 12.6242 12.487 12.8117C12.1069 12.9992 11.7749 13.2717 11.5169 13.6081L5.54758 10.2201C5.74815 9.63817 5.74815 9.00581 5.54758 8.42384L11.5169 5.03591C11.9335 5.5765 12.5354 5.9439 13.2067 6.06741C13.878 6.19091 14.5712 6.0618 15.153 5.70492C15.7348 5.34804 16.164 4.78859 16.3582 4.13425C16.5523 3.4799 16.4975 2.77688 16.2045 2.16046C15.9114 1.54404 15.4007 1.05779 14.7707 0.795258C14.1407 0.53273 13.4358 0.512478 12.7918 0.738401C12.1477 0.964323 11.6099 1.42046 11.282 2.01903C10.954 2.6176 10.859 3.31632 11.0152 3.98074L4.94421 7.42642C4.56431 7.02229 4.07175 6.74163 3.5304 6.62084C2.98906 6.50006 2.42391 6.54472 1.90825 6.74903C1.39259 6.95335 0.950227 7.30789 0.638522 7.76668C0.326817 8.22547 0.160156 8.76733 0.160156 9.32199C0.160156 9.87664 0.326817 10.4185 0.638522 10.8773C0.950227 11.3361 1.39259 11.6906 1.90825 11.8949C2.42391 12.0993 2.98906 12.1439 3.5304 12.0231C4.07175 11.9023 4.56431 11.6217 4.94421 11.2175L11.0153 14.6633C10.8844 15.2226 10.9308 15.8088 11.1481 16.3405C11.3654 16.8723 11.7428 17.3232 12.2279 17.6308C12.7131 17.9384 13.2819 18.0874 13.8556 18.0572C14.4292 18.0269 14.9792 17.8188 15.4293 17.4619C15.8793 17.1049 16.2072 16.6167 16.3673 16.0651C16.5274 15.5134 16.5119 14.9256 16.3228 14.3831C16.1338 13.8407 15.7806 13.3705 15.3123 13.0378C14.844 12.7052 14.2838 12.5265 13.7094 12.5265ZM13.7094 1.7476C14.0263 1.7476 14.3361 1.84158 14.5995 2.01764C14.863 2.1937 15.0684 2.44394 15.1897 2.73671C15.311 3.02949 15.3427 3.35165 15.2809 3.66247C15.219 3.97328 15.0664 4.25877 14.8424 4.48286C14.6183 4.70694 14.3328 4.85954 14.022 4.92136C13.7112 4.98319 13.389 4.95146 13.0962 4.83018C12.8034 4.70891 12.5532 4.50354 12.3771 4.24005C12.2011 3.97656 12.1071 3.66678 12.1071 3.34988C12.1076 2.92507 12.2765 2.5178 12.5769 2.21742C12.8773 1.91704 13.2846 1.74808 13.7094 1.7476ZM2.93045 10.9243C2.61355 10.9243 2.30376 10.8303 2.04027 10.6542C1.77678 10.4782 1.57141 10.2279 1.45014 9.93515C1.32887 9.64237 1.29714 9.32021 1.35896 9.0094C1.42078 8.69859 1.57339 8.41309 1.79747 8.18901C2.02155 7.96492 2.30705 7.81232 2.61786 7.7505C2.92867 7.68867 3.25083 7.72041 3.54361 7.84168C3.83639 7.96295 4.08663 8.16832 4.26269 8.43181C4.43875 8.6953 4.53272 9.00508 4.53272 9.32199C4.53225 9.74679 4.36328 10.1541 4.0629 10.4544C3.76252 10.7548 3.35525 10.9238 2.93045 10.9243ZM13.7094 16.8964C13.3925 16.8964 13.0827 16.8024 12.8192 16.6263C12.5557 16.4503 12.3503 16.2 12.2291 15.9073C12.1078 15.6145 12.0761 15.2923 12.1379 14.9815C12.1997 14.6707 12.3523 14.3852 12.5764 14.1611C12.8005 13.937 13.086 13.7844 13.3968 13.7226C13.7076 13.6608 14.0298 13.6925 14.3225 13.8138C14.6153 13.9351 14.8656 14.1404 15.0416 14.4039C15.2177 14.6674 15.3116 14.9772 15.3116 15.2941C15.3112 15.7189 15.1422 16.1262 14.8418 16.4266C14.5414 16.7269 14.1342 16.8959 13.7094 16.8964Z" fill="#F87E35"/>
</svg>
