<svg width="18" height="18" viewBox="0 0 18 18" fill="none" xmlns="http://www.w3.org/2000/svg">
<path d="M17.9245 6.48418C17.8384 6.21717 17.6801 5.97919 17.4672 5.79657C17.2543 5.61395 16.9949 5.49382 16.7179 5.44948L12.3713 4.74309L10.3564 0.827565C10.228 0.578297 10.0335 0.369198 9.79415 0.223214C9.55478 0.0772293 9.27983 0 8.99946 0C8.71909 0 8.44413 0.0772293 8.20477 0.223214C7.9654 0.369198 7.77087 0.578297 7.64252 0.827565L5.62757 4.74309L1.28106 5.44948C1.00434 5.49452 0.745366 5.61491 0.532562 5.79745C0.319758 5.97998 0.161345 6.21761 0.0747047 6.48425C-0.0119357 6.75089 -0.0234558 7.03625 0.0414085 7.30901C0.106273 7.58177 0.245015 7.83139 0.442412 8.03049L3.54366 11.1568L2.87241 15.5088C2.82934 15.786 2.86355 16.0697 2.97128 16.3288C3.07901 16.5878 3.25608 16.8121 3.48303 16.9769C3.70998 17.1418 3.978 17.2409 4.25762 17.2634C4.53725 17.2858 4.81764 17.2306 5.06796 17.104L8.99946 15.1206L12.9311 17.104C13.1814 17.2304 13.4617 17.2853 13.7412 17.2628C14.0208 17.2402 14.2887 17.1411 14.5155 16.9763C14.7424 16.8115 14.9195 16.5873 15.0273 16.3284C15.1351 16.0696 15.1694 15.786 15.1266 15.5088L14.4554 11.1568L17.5566 8.03049C17.7546 7.83178 17.8938 7.58215 17.9587 7.30924C18.0237 7.03632 18.0118 6.75077 17.9245 6.48418ZM16.7046 7.18543L13.177 10.7415L13.9406 15.6919C13.9501 15.7512 13.9429 15.8119 13.92 15.8674C13.8971 15.9229 13.8592 15.9709 13.8106 16.0062C13.7621 16.0415 13.7047 16.0627 13.6448 16.0673C13.585 16.072 13.525 16.06 13.4715 16.0327L8.99946 13.7766L4.52736 16.0328C4.4739 16.0601 4.41392 16.0721 4.35407 16.0674C4.29421 16.0627 4.23682 16.0416 4.18825 16.0063C4.13968 15.971 4.10182 15.923 4.07888 15.8675C4.05594 15.812 4.04881 15.7512 4.05827 15.692L4.82196 10.7415L1.29437 7.18539C1.25225 7.14283 1.22265 7.08949 1.20882 7.03123C1.19499 6.97297 1.19746 6.91202 1.21596 6.85507C1.23447 6.79811 1.26829 6.74735 1.31372 6.70835C1.35916 6.66934 1.41445 6.64359 1.47355 6.63391L6.41758 5.83044L8.70955 1.37668C8.73695 1.3234 8.77851 1.27871 8.82965 1.24751C8.8808 1.2163 8.93955 1.19979 8.99946 1.19979C9.05937 1.19979 9.11812 1.2163 9.16926 1.24751C9.22041 1.27871 9.26196 1.3234 9.28937 1.37668L11.5813 5.83044L16.5254 6.63391C16.5845 6.64359 16.6398 6.66934 16.6852 6.70835C16.7306 6.74735 16.7645 6.79811 16.783 6.85507C16.8015 6.91202 16.8039 6.97297 16.7901 7.03123C16.7763 7.08949 16.7467 7.14283 16.7045 7.18539L16.7046 7.18543Z" fill="#F87E35"/>
</svg>
