<svg width="18" height="18" viewBox="0 0 18 18" fill="none" xmlns="http://www.w3.org/2000/svg">
<path d="M17.9245 6.48418C17.8384 6.21717 17.6801 5.97919 17.4672 5.79657C17.2543 5.61395 16.9949 5.49382 16.7179 5.44948L12.3713 4.74309L10.3564 0.827565C10.228 0.578297 10.0335 0.369198 9.79415 0.223214C9.55478 0.0772293 9.27983 0 8.99946 0C8.71909 0 8.44413 0.0772293 8.20477 0.223214C7.9654 0.369198 7.77087 0.578297 7.64252 0.827565L5.62757 4.74309L1.28106 5.44948C1.00434 5.49452 0.745366 5.61491 0.532562 5.79745C0.319758 5.97998 0.161345 6.21761 0.074705 6.48425C-0.0119355 6.75089 -0.0234559 7.03625 0.0414084 7.30901C0.106273 7.58177 0.245014 7.83139 0.442411 8.03049L3.54366 11.1568L2.87241 15.5088C2.82934 15.786 2.86355 16.0697 2.97128 16.3288C3.07901 16.5878 3.25608 16.8121 3.48303 16.9769C3.70998 17.1418 3.978 17.2409 4.25763 17.2634C4.53725 17.2858 4.81764 17.2306 5.06796 17.104L8.99946 15.1206L12.9311 17.104C13.1814 17.2304 13.4617 17.2853 13.7412 17.2628C14.0208 17.2402 14.2887 17.1411 14.5155 16.9763C14.7424 16.8115 14.9195 16.5873 15.0273 16.3284C15.1351 16.0696 15.1694 15.786 15.1266 15.5088L14.4554 11.1568L17.5566 8.03049C17.7546 7.83178 17.8938 7.58215 17.9587 7.30924C18.0237 7.03632 18.0118 6.75077 17.9245 6.48418Z" fill="#F87E35"/>
</svg>
