<svg width="8" height="13" viewBox="0 0 8 13" fill="none" xmlns="http://www.w3.org/2000/svg">
<path d="M7.49907 2.391H5.35648C5.24283 2.391 5.13383 2.34586 5.05347 2.26549C4.97311 2.18513 4.92796 2.07614 4.92796 1.96249C4.92796 1.84884 4.97311 1.73984 5.05347 1.65948C5.13383 1.57912 5.24283 1.53397 5.35648 1.53397H7.49907C7.61272 1.53397 7.72172 1.57912 7.80208 1.65948C7.88244 1.73984 7.92759 1.84884 7.92759 1.96249C7.92759 2.07614 7.88244 2.18513 7.80208 2.26549C7.72172 2.34586 7.61272 2.391 7.49907 2.391ZM7.07055 3.67656C7.07055 3.79021 7.02541 3.8992 6.94504 3.97957C6.86468 4.05993 6.75568 4.10508 6.64203 4.10508H5.35648C5.24283 4.10508 5.13383 4.05993 5.05347 3.97957C4.97311 3.8992 4.92796 3.79021 4.92796 3.67656C4.92796 3.56291 4.97311 3.45391 5.05347 3.37355C5.13383 3.29319 5.24283 3.24804 5.35648 3.24804H6.64203C6.75568 3.24804 6.86468 3.29319 6.94504 3.37355C7.02541 3.45391 7.07055 3.56291 7.07055 3.67656ZM6.21352 5.39063C6.21352 5.50428 6.16837 5.61328 6.08801 5.69364C6.00764 5.774 5.89865 5.81915 5.785 5.81915H5.35648C5.24283 5.81915 5.13383 5.774 5.05347 5.69364C4.97311 5.61328 4.92796 5.50428 4.92796 5.39063C4.92796 5.27698 4.97311 5.16799 5.05347 5.08762C5.13383 5.00726 5.24283 4.96211 5.35648 4.96211H5.785C5.89865 4.96211 6.00764 5.00726 6.08801 5.08762C6.16837 5.16799 6.21352 5.27698 6.21352 5.39063ZM5.57074 9.46156C5.57099 9.93412 5.45101 10.399 5.22208 10.8124C4.99315 11.2258 4.66281 11.5742 4.26213 11.8247C3.86145 12.0753 3.40362 12.2197 2.93171 12.2446C2.4598 12.2694 1.98933 12.1737 1.56457 11.9666C1.13982 11.7595 0.774742 11.4477 0.503699 11.0606C0.232655 10.6735 0.0645569 10.2238 0.0152216 9.75384C-0.0341136 9.28386 0.0369363 8.80905 0.221686 8.3741C0.406435 7.93915 0.69881 7.55835 1.0713 7.26754V1.96249C1.0713 1.50789 1.25189 1.0719 1.57334 0.750453C1.89479 0.429002 2.33077 0.248413 2.78537 0.248413C3.23997 0.248413 3.67595 0.429002 3.9974 0.750453C4.31885 1.0719 4.49944 1.50789 4.49944 1.96249V7.26754C4.83386 7.52701 5.10433 7.85971 5.29005 8.24006C5.47577 8.62041 5.57179 9.03828 5.57074 9.46156ZM4.7137 9.46156C4.71415 9.14028 4.63397 8.82402 4.48049 8.54177C4.32701 8.25952 4.10515 8.02031 3.83524 7.84604C3.77569 7.80682 3.72686 7.75337 3.69319 7.69051C3.65952 7.62766 3.64206 7.55739 3.64241 7.48609V1.96249C3.64241 1.73519 3.55211 1.5172 3.39139 1.35647C3.23066 1.19574 3.01267 1.10545 2.78537 1.10545C2.55807 1.10545 2.34008 1.19574 2.17935 1.35647C2.01863 1.5172 1.92833 1.73519 1.92833 1.96249V7.48609C1.92868 7.55739 1.91122 7.62766 1.87755 7.69051C1.84388 7.75337 1.79505 7.80682 1.7355 7.84604C1.4049 8.0612 1.14804 8.37236 0.999436 8.73775C0.850831 9.10313 0.817588 9.50524 0.904174 9.89007C0.97573 10.2103 1.12797 10.5068 1.34644 10.7516C1.5649 10.9964 1.84233 11.1812 2.15235 11.2886C2.46238 11.3959 2.79471 11.4222 3.11776 11.3649C3.4408 11.3077 3.74384 11.1687 3.99808 10.9614C4.2214 10.7803 4.40152 10.5518 4.52532 10.2923C4.64912 10.0328 4.71348 9.74904 4.7137 9.46156ZM3.21389 8.93448V7.1047C3.21389 6.99105 3.16874 6.88206 3.08838 6.8017C3.00801 6.72133 2.89902 6.67619 2.78537 6.67619C2.67172 6.67619 2.56272 6.72133 2.48236 6.8017C2.402 6.88206 2.35685 6.99105 2.35685 7.1047V8.93448C2.19346 9.02881 2.06577 9.17442 1.99357 9.34872C1.92137 9.52302 1.90871 9.71628 1.95754 9.89851C2.00637 10.0807 2.11396 10.2418 2.26364 10.3566C2.41331 10.4715 2.59671 10.5337 2.78537 10.5337C2.97403 10.5337 3.15742 10.4715 3.3071 10.3566C3.45678 10.2418 3.56437 10.0807 3.6132 9.89851C3.66203 9.71628 3.64937 9.52302 3.57717 9.34872C3.50497 9.17442 3.37727 9.02881 3.21389 8.93448Z" fill="#636773"/>
</svg>
