<svg width="23" height="19" viewBox="0 0 23 19" fill="none" xmlns="http://www.w3.org/2000/svg">
<path d="M20.5482 4.97414C20.5577 5.16784 20.5613 5.36393 20.5613 5.55762C20.5613 11.5239 16.0214 18.4013 7.72002 18.4013C5.16969 18.4013 2.79872 17.654 0.800781 16.3723C1.15469 16.4141 1.51339 16.4357 1.87687 16.4357C3.99317 16.4357 5.9385 15.7135 7.48209 14.5047C5.50806 14.4676 3.84013 13.1644 3.26622 11.3709C3.54122 11.4223 3.82459 11.4498 4.11513 11.4498C4.52763 11.4498 4.92698 11.396 5.3048 11.2932C3.23991 10.8771 1.68437 9.05371 1.68437 6.86566C1.68437 6.84653 1.68437 6.8286 1.68437 6.80947C2.29296 7.14784 2.99002 7.3511 3.72893 7.37501C2.51774 6.56436 1.72024 5.18458 1.72024 3.61708C1.72024 2.79088 1.94263 2.0149 2.33241 1.34773C4.55752 4.0798 7.88502 5.87566 11.6358 6.06458C11.5593 5.73338 11.5198 5.39023 11.5198 5.03512C11.5198 2.54338 13.5393 0.523926 16.0322 0.523926C17.3307 0.523926 18.5036 1.07034 19.3274 1.94795C20.3545 1.74469 21.3206 1.36925 22.1934 0.85273C21.8562 1.9061 21.14 2.79088 20.2086 3.34925C21.1221 3.23925 21.9901 2.99893 22.8008 2.63903C22.1958 3.54534 21.4306 4.33925 20.5482 4.97414Z" fill="#2FAAD1"/>
</svg>
