<svg width="31" height="30" viewBox="0 0 31 30" fill="none" xmlns="http://www.w3.org/2000/svg">
<path fill-rule="evenodd" clip-rule="evenodd" d="M15.9414 0C12.9747 0 10.0746 0.879732 7.60784 2.52795C5.14111 4.17617 3.21853 6.51884 2.08322 9.25973C0.947906 12.0006 0.650856 15.0166 1.22963 17.9263C1.80841 20.836 3.23702 23.5088 5.3348 25.6065C7.43258 27.7043 10.1053 29.1329 13.015 29.7117C15.9247 30.2905 18.9407 29.9934 21.6816 28.8581C24.4225 27.7228 26.7652 25.8002 28.4134 23.3335C30.0616 20.8668 30.9413 17.9667 30.9413 15C30.9368 11.0231 29.355 7.21042 26.543 4.39836C23.7309 1.58629 19.9182 0.00449946 15.9414 0ZM15.9414 27.6249C13.4444 27.6249 11.0035 26.8845 8.92732 25.4972C8.37368 25.1273 7.85261 24.7158 7.36799 24.2675C9.76327 21.5311 12.7768 20.0361 15.946 20.0361C19.1118 20.0361 22.1215 21.527 24.5154 24.2585C22.187 26.4151 19.1268 27.6212 15.9414 27.6249ZM4.27743 19.8313C4.66964 20.7782 5.17349 21.6686 5.77482 22.4854C8.31104 19.6787 11.4486 18.0202 14.8058 17.7139C14.7607 17.7058 14.7155 17.6973 14.6705 17.6882C13.464 17.4452 12.3569 16.8493 11.4895 15.9763C10.622 15.1032 10.0334 13.9923 9.79816 12.7843C9.56293 11.5763 9.69171 10.3256 10.1682 9.19085C10.6446 8.05611 11.4473 7.08841 12.4744 6.41044C13.5016 5.73248 14.7069 5.37477 15.9376 5.3827C17.5798 5.38958 19.1523 6.04775 20.3098 7.21276C21.4673 8.37776 22.1153 9.95442 22.1116 11.5967C22.1115 12.8274 21.7461 14.0304 21.0615 15.0531C20.3769 16.0758 19.404 16.8723 18.2662 17.3414C17.8629 17.5077 17.4453 17.6302 17.0205 17.7082C20.398 17.999 23.556 19.6573 26.1075 22.476C27.692 20.3225 28.5631 17.7064 28.5663 15C28.5663 12.503 27.8259 10.0621 26.4387 7.98591C25.0514 5.90974 23.0797 4.29157 20.7727 3.33601C18.4658 2.38046 15.9274 2.13044 13.4784 2.61758C11.0294 3.10472 8.77981 4.30713 7.01417 6.07276C5.24854 7.8384 4.04613 10.0879 3.55899 12.537C3.07186 14.986 3.32187 17.5244 4.27743 19.8313ZM13.7942 14.8077C14.4307 15.2248 15.1767 15.4434 15.9376 15.4357C16.9502 15.4293 17.919 15.0216 18.6313 14.3019C19.3437 13.5822 19.7416 12.6093 19.7376 11.5967C19.7375 10.8358 19.5114 10.092 19.0878 9.45986C18.6642 8.82772 18.0623 8.33572 17.3586 8.04634C16.6548 7.75696 15.8809 7.68324 15.1352 7.83456C14.3894 7.98587 13.7055 8.3554 13.1702 8.8962C12.6349 9.437 12.2724 10.1247 12.1287 10.8719C11.985 11.6192 12.0666 12.3923 12.3631 13.093C12.6597 13.7938 13.1578 14.3906 13.7942 14.8077Z" fill="#17191D"/>
</svg>
